<svg width="28" height="18" viewBox="0 0 28 18" fill="none" xmlns="http://www.w3.org/2000/svg">
<path d="M0.919373 7.02789C0.919373 1.80382 10.1157 0.343811 14.0006 0.343811C17.8854 0.343811 27.0819 1.80474 27.0819 7.02789C27.0819 10.4721 22.653 12.4135 19.3445 13.1474L18.948 11.351C20.8314 10.9338 25.2357 9.48669 25.2357 7.02819C25.2357 3.27552 16.6242 2.18999 14.0012 2.18999C11.3793 2.18999 2.76668 3.27454 2.76668 7.02819C2.76668 10.2021 9.43852 11.5605 11.8382 11.7715L9.46574 9.15484L10.8294 7.92164L15.2425 12.7895L10.8294 17.6573L9.46574 16.4241L11.9921 13.637C8.39502 13.3625 0.920321 11.6504 0.920321 7.02819L0.919373 7.02789Z" fill="black"/>
</svg>
