<svg width="16" height="13" viewBox="0 0 16 13" fill="none" xmlns="http://www.w3.org/2000/svg">
<path d="M4 7.76426C5.10457 7.76426 6 7.12275 6 6.33141C6 5.54007 5.10457 4.89856 4 4.89856C2.89543 4.89856 2 5.54007 2 6.33141C2 7.12275 2.89543 7.76426 4 7.76426Z" stroke="#A2A1A1" stroke-width="1.5" stroke-linecap="round" stroke-linejoin="round"/>
<path d="M11 10.9882C12.1046 10.9882 13 10.3467 13 9.55532C13 8.76398 12.1046 8.12247 11 8.12247C9.89543 8.12247 9 8.76398 9 9.55532C9 10.3467 9.89543 10.9882 11 10.9882Z" stroke="#A2A1A1" stroke-width="1.5" stroke-linecap="round" stroke-linejoin="round"/>
<path d="M11 4.54034C12.1046 4.54034 13 3.89883 13 3.10749C13 2.31615 12.1046 1.67464 11 1.67464C9.89543 1.67464 9 2.31615 9 3.10749C9 3.89883 9.89543 4.54034 11 4.54034Z" stroke="#A2A1A1" stroke-width="1.5" stroke-linecap="round" stroke-linejoin="round"/>
<path d="M9.31881 3.88213L5.68131 5.55677" stroke="#A2A1A1" stroke-width="1.5" stroke-linecap="round" stroke-linejoin="round"/>
<path d="M5.68131 7.10603L9.31881 8.78068" stroke="#A2A1A1" stroke-width="1.5" stroke-linecap="round" stroke-linejoin="round"/>
</svg>
